<svg id="Layer_1" xmlns="http://www.w3.org/2000/svg" xmlns:xlink="http://www.w3.org/1999/xlink" viewBox="0 0 1014.4 208.9"><style>.st0{fill:#fff}.st1{fill:#ff1733}.st2{fill:#ff0}</style><image width="201" height="163" xlink:href="4B9BA59456650318.png" transform="translate(834.384 67.91)" overflow="visible" opacity=".75"/><path d="M909.8 138l10.6-40h84.5c-3.5 7-9.4 14.2-17.6 21.6 4.3 5.2 6.4 12.1 6.4 20.5 0 14.2-5 27.3-15 39.1S956.8 198.3 943 201h-40.8c-20.7 0-33.1-9.6-37.1-28.8-.9-3.7-.4-10.3 1.3-19.8h49.4c-.6 1.7-.9 3.1-.9 4.5 0 4.8 3.1 7.2 9.3 7.2 3.2 0 6.5-.5 9.9-1.6 4-1.2 7.4-3.1 10.4-5.6 3.7-3.1 5.5-6.4 5.5-9.9 0-6-7.1-9-21.2-9h-19z"/><image width="187" height="98" xlink:href="4B9BA59456650319.png" transform="translate(850.384 21.91)" overflow="visible" opacity=".75"/><path class="st0" d="M881.2 89.4c3.4-9.7 9.4-18.3 18.1-25.6 9.3-7.8 18.8-11.7 28.5-11.7h54c8.8 0 16 5.2 21.4 15.5 2.8 5.5 4.2 12.8 4.2 21.8H881.2z"/><image width="109" height="84" xlink:href="4B9BA5945665031F.png" transform="translate(723.384 -9.09)" overflow="visible" opacity=".75"/><path d="M795.1 21.1l6.6 23.6h-11.9l-6-21.2-7.2 7.1-8.7-7.1 5.9 21.2h-12.9l-6.7-23.6h40.9z"/><image width="80" height="84" xlink:href="4B9BA5945665031A.png" transform="translate(769.384 -9.09)" overflow="visible" opacity=".75"/><path d="M812.7 21.1l6.6 23.6h-12.5l-6.5-23.6h12.4z"/><image width="80" height="84" xlink:href="4B9BA5945665031B.png" transform="translate(867.384 -9.09)" overflow="visible" opacity=".75"/><path d="M910.6 21.1l6.6 23.6h-12.5l-6.5-23.6h12.4z"/><image width="99" height="84" xlink:href="4B9BA59456650316.png" transform="translate(883.384 -9.09)" overflow="visible" opacity=".75"/><path d="M926 21.1l3.7 12.6c.4 1.5 1.1 2.4 2.1 2.6h7.5c.6-.2.9-.6.9-1.3 0-.3-.1-.8-.2-1.3l-3.6-12.5h12l2.6 9.5c.5 1.9.8 3.6.8 5.3 0 3.1-1.2 5.4-3.6 6.9-1.9 1.2-4.5 1.9-7.8 1.9h-6.1c-5.4 0-9.8-1.8-13-5.5-1.8-2-3.1-4.5-4-7.5-1.3-4.7-2.3-8-2.8-9.8l-.2-.8 11.7-.1z"/><image width="101" height="84" xlink:href="4B9BA59456650317.png" transform="translate(922.384 -9.09)" overflow="visible" opacity=".75"/><path d="M986.7 21.1l6.5 23.6h-11.8l-4.2-14.3-11.2-6.8 5.8 21.1h-13l-6.3-23.6h34.2z"/><image width="101" height="84" xlink:href="4B9BA59456650328.png" transform="translate(787.384 -9.09)" overflow="visible" opacity=".75"/><path d="M844.1 35c.8-.1 1.2-.3 1.6-.9.3-.5.2-1.2.1-1.8-.4-1.9-2.1-2.4-3.6-2.5h-8.9c-5.8 0-8.8-1.2-8.8-1.2-.7-.2-2-.7-3-1.6-1.8-1.5-3.3-3.6-3.6-5.9h20.9c2 0 4 .2 5.9.4 2.5.3 5.1.8 7.1 2.5s3.3 3.9 4.1 6.3c.9 2.8 2.4 6 1.4 9-1.1 3.2-4.5 5.3-7.9 5.3h-24.2l-2.7-9.7c0 .1 21.1.1 21.6.1z"/><image width="101" height="84" xlink:href="4B9BA5945665032B.png" transform="translate(827.384 -9.09)" overflow="visible" opacity=".75"/><path d="M883.9 35c.8-.1 1.2-.3 1.6-.9.3-.5.2-1.2.1-1.8-.4-1.9-2.1-2.4-3.6-2.5h-8.9c-5.8 0-8.8-1.2-8.8-1.2-.7-.2-2-.7-3-1.6-1.8-1.5-3.3-3.6-3.6-5.9h20.9c2 0 4 .2 5.9.4 2.5.3 5.1.8 7.1 2.5s3.3 3.9 4.1 6.3c.9 2.8 2.4 6 1.4 9-1.1 3.2-4.5 5.3-7.9 5.3H865l-2.7-9.7c-.1.1 21 .1 21.6.1z"/><image width="95" height="70" xlink:href="ED7EEE707C9972C7.png" transform="translate(727.384 21.91)" overflow="visible" opacity=".75"/><path class="st1" d="M791.8 52.5l-2.5 8.7h-30.9c.7-2.2 1.9-4.1 3.6-5.8 2-1.9 4-2.8 6.1-2.8h23.7z"/><image width="98" height="70" xlink:href="ED7EEE707C9972C5.png" transform="translate(764.384 21.91)" overflow="visible" opacity=".75"/><path class="st1" d="M832.1 61.1h-36.9l2.3-8.6h29.4c.8 0 1.6.3 2.4.8.8.6 1.4 1.2 1.8 2 .7 1.2 1 3.1 1 5.8z"/><image width="76" height="70" xlink:href="ED7EEE707C9972C3.png" transform="translate(807.384 21.91)" overflow="visible" opacity=".75"/><path class="st1" d="M853 52.5l-2.4 8.7h-12.4l2.5-8.7H853z"/><image width="94" height="70" xlink:href="ED7EEE707C9972DD.png" transform="translate(826.384 21.91)" overflow="visible" opacity=".75"/><path class="st1" d="M890 52.5l-2.4 8.6h-31.3l2.3-8.6H890z"/><image width="104" height="69" xlink:href="ED7EEE707C9972DF.png" transform="translate(720.384 -21.09)" overflow="visible" opacity=".75"/><path class="st2" d="M763.8 9.1l8.8 6.8 7.1-6.8h12.1l2.4 8.7h-40.8l-2.5-8.7z"/><image width="76" height="69" xlink:href="ED7EEE707C9972C2.png" transform="translate(766.384 -21.09)" overflow="visible" opacity=".75"/><path class="st2" d="M809.4 9.1l2.5 8.7h-12.4l-2.4-8.7z"/><image width="76" height="69" xlink:href="ED7EEE707C9972C1.png" transform="translate(864.384 -21.09)" overflow="visible" opacity=".75"/><path class="st2" d="M907.3 9.1l2.5 8.7h-12.4L895 9.1z"/><image width="95" height="70" xlink:href="ED7EEE707C9972C6.png" transform="translate(883.384 -22.09)" overflow="visible" opacity=".75"/><path class="st2" d="M913.5 15.9c0-4.7 2.2-7.1 6.7-7.1h17.6c2.2 0 4.3 1 6.3 2.9 1.7 1.6 2.8 3.6 3.5 5.9h-34c-.1.1-.1-.5-.1-1.7z"/><image width="98" height="69" xlink:href="ED7EEE707C9972C0.png" transform="translate(918.384 -21.09)" overflow="visible" opacity=".75"/><path class="st2" d="M962.1 9.1l11.5 7.3-2-7.3h11.7l2.4 8.6h-33.8l-2.6-8.6z"/><image width="96" height="70" xlink:href="ED7EEE707C9972CE.png" transform="translate(787.384 -22.09)" overflow="visible" opacity=".75"/><path class="st2" d="M853 17.6l-2.5-8.7h-27.2c-2 0-3.6 1.2-4.9 3.6-.7 1.2-1 3-1 5.1H853z"/><image width="97" height="70" xlink:href="ED7EEE707C9972E6.png" transform="translate(826.384 -22.09)" overflow="visible" opacity=".75"/><path class="st2" d="M892.8 17.6l-2.5-8.7h-27.2c-2 0-3.6 1.2-4.9 3.6-.7 1.2-1 3-1 5.1h35.6z"/><image width="92" height="85" xlink:href="ED7EEE707C9972E5.png" transform="translate(723.384 33.91)" overflow="visible" opacity=".75"/><path d="M784.5 78.6l-2.7 9.6h-16.4c-5.7 0-9.3-1.8-10.8-5.4-.5-1.1-.6-2.6-.5-4.6 0-.4.1-1.1.2-2.1l3-11.5 12.8-.1-3.7 11.4c.1.4.2.9.3 1.4.3.6.9 1 1.9 1.2h15.9z"/><image width="105" height="85" xlink:href="ED7EEE707C9972E2.png" transform="translate(757.384 33.91)" overflow="visible" opacity=".75"/><path d="M831.4 64.6c-.3 2.1-1.5 4.1-3.6 5.9-1 .9-1.8 1.4-2.4 1.6.8 1.2 1.2 2.6 1.2 3.9 0 .8-.1 1.9-.4 3.4-.1.9-1 3.8-2.7 8.7H812l4.1-14.2h-12.2l-4.4 14.2h-12l6.9-23.6h37z"/><image width="80" height="85" xlink:href="ED7EEE707C9972ED.png" transform="translate(800.384 33.91)" overflow="visible" opacity=".75"/><path d="M849.9 64.6l-6.5 23.6h-12.5l6.5-23.6z"/><image width="79" height="85" xlink:href="ED7EEE707C9972EE.png" transform="translate(828.384 33.91)" overflow="visible" opacity=".75"/><path d="M876.7 64.6l-6.3 23.6h-11.8l6.4-23.6z"/><image width="80" height="99" xlink:href="ED7EEE707C9972EC.png" transform="translate(624.384 -21.09)" overflow="visible" opacity=".75"/><path class="st0" d="M673.9 46.9L663.5 9.7h-9.1l10.2 37.2z"/><image width="80" height="98" xlink:href="ED7EEE707C9972E3.png" transform="translate(624.384 22.91)" overflow="visible" opacity=".75"/><path class="st0" d="M654.4 90.6h9.1l10.4-37.2h-9.3z"/><image width="96" height="99" xlink:href="ED7EEE707C9972E4.png" transform="translate(593.384 -21.09)" overflow="visible" opacity=".75"/><path d="M658.4 46.9L648 9.7h-24.2L634 46.9z"/><image width="81" height="99" xlink:href="ED7EEE707C9972E7.png" transform="translate(577.384 -21.09)" overflow="visible" opacity=".75"/><path class="st0" d="M627.7 46.9L617.4 9.7h-9.1l10.2 37.2z"/><image width="81" height="98" xlink:href="ED7EEE707C9972DB.png" transform="translate(577.384 22.91)" overflow="visible" opacity=".75"/><path class="st0" d="M608.3 90.6h9.1l10.3-37.2h-9.2z"/><image width="95" height="99" xlink:href="ED7EEE707C997309.png" transform="translate(547.384 -21.09)" overflow="visible" opacity=".75"/><path d="M612.2 46.9L601.9 9.7h-24.3l10.2 37.2z"/><image width="81" height="99" xlink:href="ED7EEE707C997307.png" transform="translate(531.384 -21.09)" overflow="visible" opacity=".75"/><path class="st0" d="M581.6 46.9L571.2 9.7h-9.1l10.2 37.2z"/><image width="81" height="98" xlink:href="ED7EEE707C997339.png" transform="translate(531.384 22.91)" overflow="visible" opacity=".75"/><path class="st0" d="M562.1 90.6h9.1l10.4-37.2h-9.3z"/><image width="96" height="99" xlink:href="ED7EEE707C99733B.png" transform="translate(685.384 -21.09)" overflow="visible" opacity=".75"/><path d="M750.7 46.9L740.4 9.7h-24.3l10.2 37.2z"/><image width="96" height="98" xlink:href="ED7EEE707C997338.png" transform="translate(685.384 22.91)" overflow="visible" opacity=".75"/><path d="M716.1 90.6h24.3l10.3-37.2h-24.4z"/><image width="80" height="99" xlink:href="ED7EEE707C99733F.png" transform="translate(670.384 -21.09)" overflow="visible" opacity=".75"/><path class="st0" d="M720 46.9L709.7 9.7h-9.1l10.2 37.2z"/><image width="80" height="98" xlink:href="ED7EEE707C99733A.png" transform="translate(670.384 22.91)" overflow="visible" opacity=".75"/><path class="st0" d="M700.6 90.6h9.1L720 53.4h-9.2z"/><image width="96" height="99" xlink:href="ED7EEE707C997336.png" transform="translate(639.384 -21.09)" overflow="visible" opacity=".75"/><path d="M704.5 46.9L694.2 9.7h-24.3l10.2 37.2z"/><image width="96" height="98" xlink:href="ED7EEE707C997337.png" transform="translate(639.384 22.91)" overflow="visible" opacity=".75"/><path d="M669.9 90.6h24.3l10.3-37.2h-24.4z"/><image width="95" height="98" xlink:href="ED7EEE707C997308.png" transform="translate(547.384 22.91)" overflow="visible" opacity=".75"/><path d="M577.6 90.6h24.3l10.3-37.2h-24.4z"/><image width="80" height="99" xlink:href="ED7EEE707C997314.png" transform="translate(439.384 -21.09)" overflow="visible" opacity=".75"/><path class="st0" d="M489.1 46.9L478.8 9.7h-9.1l10.2 37.2z"/><image width="80" height="98" xlink:href="ED7EEE707C997317.png" transform="translate(439.384 22.91)" overflow="visible" opacity=".75"/><path class="st0" d="M469.7 90.6h9.1l10.3-37.2h-9.2z"/><image width="96" height="99" xlink:href="ED7EEE707C997315.png" transform="translate(408.384 -21.09)" overflow="visible" opacity=".75"/><path d="M473.6 46.9L463.3 9.7H439l10.2 37.2z"/><image width="80" height="99" xlink:href="ED7EEE707C997313.png" transform="translate(393.384 -21.09)" overflow="visible" opacity=".75"/><path class="st0" d="M443 46.9L432.6 9.7h-9.1l10.2 37.2z"/><image width="80" height="98" xlink:href="ED7EEE707C99736C.png" transform="translate(393.384 22.91)" overflow="visible" opacity=".75"/><path class="st0" d="M423.5 90.6h9.1L443 53.4h-9.3z"/><image width="96" height="99" xlink:href="ED7EEE707C99736F.png" transform="translate(362.384 -21.09)" overflow="visible" opacity=".75"/><path d="M427.5 46.9L417.1 9.7h-24.2l10.2 37.2z"/><image width="80" height="99" xlink:href="ED7EEE707C99736D.png" transform="translate(347.384 -21.09)" overflow="visible" opacity=".75"/><path class="st0" d="M396.8 46.9L386.5 9.7h-9.1l10.2 37.2z"/><image width="80" height="98" xlink:href="ED7EEE707C997373.png" transform="translate(347.384 22.91)" overflow="visible" opacity=".75"/><path class="st0" d="M377.4 90.6h9.1l10.3-37.2h-9.2z"/><image width="96" height="99" xlink:href="ED7EEE707C997374.png" transform="translate(500.384 -21.09)" overflow="visible" opacity=".75"/><path d="M565.9 46.9L555.6 9.7h-24.3l10.2 37.2z"/><image width="96" height="98" xlink:href="ED7EEE707C997377.png" transform="translate(500.384 22.91)" overflow="visible" opacity=".75"/><path d="M531.3 90.6h24.3l10.3-37.2h-24.4z"/><image width="80" height="99" xlink:href="ED7EEE707C997353.png" transform="translate(485.384 -21.09)" overflow="visible" opacity=".75"/><path class="st0" d="M535.3 46.9L524.9 9.7h-9.1L526 46.9z"/><image width="80" height="98" xlink:href="ED7EEE707C997351.png" transform="translate(485.384 22.91)" overflow="visible" opacity=".75"/><path class="st0" d="M515.8 90.6h9.1l10.4-37.2H526z"/><image width="96" height="99" xlink:href="ED7EEE707C997357.png" transform="translate(454.384 -21.09)" overflow="visible" opacity=".75"/><path d="M519.8 46.9L509.4 9.7h-24.2l10.2 37.2z"/><image width="96" height="98" xlink:href="ED7EEE707C997352.png" transform="translate(454.384 22.91)" overflow="visible" opacity=".75"/><path d="M485.2 90.6h24.2l10.4-37.2h-24.4z"/><image width="96" height="98" xlink:href="ED7EEE707C99735D.png" transform="translate(362.384 22.91)" overflow="visible" opacity=".75"/><path d="M392.9 90.6h24.2l10.4-37.2h-24.4z"/><image width="81" height="99" xlink:href="ED7EEE707C99735E.png" transform="translate(253.384 -21.09)" overflow="visible" opacity=".75"/><path class="st0" d="M303.4 46.9L293.1 9.7H284l10.2 37.2z"/><image width="81" height="98" xlink:href="ED7EEE707C99735F.png" transform="translate(253.384 22.91)" overflow="visible" opacity=".75"/><path class="st0" d="M284 90.6h9.1l10.3-37.2h-9.2z"/><image width="96" height="99" xlink:href="ED7EEE707C997354.png" transform="translate(222.384 -21.09)" overflow="visible" opacity=".75"/><path d="M288 46.9L277.6 9.7h-24.2l10.1 37.2z"/><image width="80" height="99" xlink:href="ED7EEE707C997355.png" transform="translate(207.384 -21.09)" overflow="visible" opacity=".75"/><path class="st0" d="M257.3 46.9L247 9.7h-9.1L248 46.9z"/><image width="80" height="98" xlink:href="ED7EEE707C997356.png" transform="translate(207.384 22.91)" overflow="visible" opacity=".75"/><path class="st0" d="M237.9 90.6h9.1l10.3-37.2H248z"/><image width="96" height="99" xlink:href="ED7EEE707C9973BA.png" transform="translate(176.384 -21.09)" overflow="visible" opacity=".75"/><path d="M241.8 46.9L231.5 9.7h-24.3l10.2 37.2z"/><image width="80" height="99" xlink:href="ED7EEE707C9973B9.png" transform="translate(161.384 -21.09)" overflow="visible" opacity=".75"/><path class="st0" d="M211.1 46.9L200.8 9.7h-9.1l10.2 37.2z"/><image width="80" height="98" xlink:href="ED7EEE707C9973B6.png" transform="translate(161.384 22.91)" overflow="visible" opacity=".75"/><path class="st0" d="M191.7 90.6h9.1l10.3-37.2h-9.2z"/><image width="95" height="99" xlink:href="ED7EEE707C9973C9.png" transform="translate(315.384 -21.09)" overflow="visible" opacity=".75"/><path d="M380.3 46.9L369.9 9.7h-24.2l10.1 37.2z"/><image width="95" height="98" xlink:href="ED7EEE707C9973CA.png" transform="translate(315.384 22.91)" overflow="visible" opacity=".75"/><path d="M345.7 90.6h24.2l10.4-37.2h-24.5z"/><image width="81" height="99" xlink:href="ED7EEE707C9973C8.png" transform="translate(299.384 -21.09)" overflow="visible" opacity=".75"/><path class="st0" d="M349.6 46.9L339.3 9.7h-9.1l10.1 37.2z"/><image width="81" height="98" xlink:href="ED7EEE707C9973CE.png" transform="translate(299.384 22.91)" overflow="visible" opacity=".75"/><path class="st0" d="M330.2 90.6h9.1l10.3-37.2h-9.3z"/><image width="95" height="99" xlink:href="ED7EEE707C9973CB.png" transform="translate(269.384 -21.09)" overflow="visible" opacity=".75"/><path d="M334.1 46.9L323.8 9.7h-24.3l10.2 37.2z"/><image width="95" height="98" xlink:href="ED7EEE707C9973C6.png" transform="translate(269.384 22.91)" overflow="visible" opacity=".75"/><path d="M299.5 90.6h24.3l10.3-37.2h-24.4z"/><image width="96" height="98" xlink:href="ED7EEE707C9973C7.png" transform="translate(176.384 22.91)" overflow="visible" opacity=".75"/><path d="M207.2 90.6h24.3l10.3-37.2h-24.4z"/><image width="96" height="98" xlink:href="ED7EEE707C9973ED.png" transform="translate(408.384 22.91)" overflow="visible" opacity=".75"/><path d="M439 90.6h24.3l10.3-37.2h-24.4z"/><image width="96" height="98" xlink:href="ED7EEE707C9973EB.png" transform="translate(593.384 22.91)" overflow="visible" opacity=".75"/><path d="M623.8 90.6H648l10.4-37.2H634z"/><image width="96" height="98" xlink:href="ED7EEE707C9973E5.png" transform="translate(222.384 22.91)" overflow="visible" opacity=".75"/><path d="M253.4 90.6h24.2L288 53.4h-24.5z"/><image width="80" height="99" xlink:href="ED7EEE707C9973E7.png" transform="translate(69.384 -21.09)" overflow="visible" opacity=".75"/><path class="st0" d="M119.1 46.9L108.8 9.7h-9.1l10.2 37.2z"/><image width="80" height="98" xlink:href="ED7EEE707C9973E4.png" transform="translate(69.384 22.91)" overflow="visible" opacity=".75"/><path class="st0" d="M99.7 90.6h9.1l10.3-37.2h-9.2z"/><image width="96" height="99" xlink:href="ED7EEE707C9973FB.png" transform="translate(38.384 -21.09)" overflow="visible" opacity=".75"/><path d="M103.6 46.9L93.3 9.7H69l10.2 37.2z"/><image width="80" height="99" xlink:href="ED7EEE707C9973FD.png" transform="translate(23.384 -21.09)" overflow="visible" opacity=".75"/><path class="st0" d="M73 46.9L62.6 9.7h-9.1l10.2 37.2z"/><image width="80" height="98" xlink:href="ED7EEE707C9973FF.png" transform="translate(23.384 22.91)" overflow="visible" opacity=".75"/><path class="st0" d="M53.5 90.6h9.1L73 53.4h-9.3z"/><image width="96" height="99" xlink:href="ED7EEE707C9973FC.png" transform="translate(-7.616 -21.09)" overflow="visible" opacity=".75"/><path d="M57.5 46.9L47.1 9.7H22.9L33 46.9z"/><image width="80" height="99" xlink:href="ED7EEE707C9973E6.png" transform="translate(-22.616 -21.09)" overflow="visible" opacity=".75"/><path class="st0" d="M26.8 46.9L16.5 9.7H7.4l10.2 37.2z"/><image width="80" height="98" xlink:href="ED7EEE707C997380.png" transform="translate(-22.616 22.91)" overflow="visible" opacity=".75"/><path class="st0" d="M7.4 90.6h9.1l10.3-37.2h-9.2z"/><image width="96" height="99" xlink:href="ED7EEE707C997383.png" transform="translate(130.384 -21.09)" overflow="visible" opacity=".75"/><path d="M195.9 46.9L185.6 9.7h-24.3l10.2 37.2z"/><image width="96" height="98" xlink:href="ED7EEE707C997381.png" transform="translate(130.384 22.91)" overflow="visible" opacity=".75"/><path d="M161.3 90.6h24.3l10.3-37.2h-24.4z"/><image width="80" height="99" xlink:href="ED7EEE707C997387.png" transform="translate(115.384 -21.09)" overflow="visible" opacity=".75"/><path class="st0" d="M165.3 46.9L154.9 9.7h-9.1L156 46.9z"/><image width="80" height="98" xlink:href="ED7EEE707C997382.png" transform="translate(115.384 22.91)" overflow="visible" opacity=".75"/><path class="st0" d="M145.8 90.6h9.1l10.4-37.2H156z"/><image width="96" height="99" xlink:href="ED7EEE707C99738D.png" transform="translate(84.384 -21.09)" overflow="visible" opacity=".75"/><path d="M149.8 46.9L139.4 9.7h-24.2l10.1 37.2z"/><image width="96" height="98" xlink:href="ED7EEE707C99738E.png" transform="translate(84.384 22.91)" overflow="visible" opacity=".75"/><path d="M115.2 90.6h24.2l10.4-37.2h-24.5z"/><image width="96" height="98" xlink:href="ED7EEE707C99738F.png" transform="translate(-7.616 22.91)" overflow="visible" opacity=".75"/><path d="M22.9 90.6h24.2l10.4-37.2H33z"/><image width="96" height="98" xlink:href="ED7EEE707C997384.png" transform="translate(38.384 22.91)" overflow="visible" opacity=".75"/><path d="M69 90.6h24.3l10.3-37.2H79.2z"/></svg>