<?xml version="1.0" encoding="utf-8"?>
<!-- Generator: Adobe Illustrator 19.2.0, SVG Export Plug-In . SVG Version: 6.00 Build 0)  -->
<svg version="1.1" id="Layer_1" xmlns="http://www.w3.org/2000/svg" xmlns:xlink="http://www.w3.org/1999/xlink" x="0px" y="0px"
	 viewBox="0 0 1014.4 208.9" style="enable-background:new 0 0 1014.4 208.9;" xml:space="preserve">
<style type="text/css">
	.st0{fill:#FFFFFF;}
	.st1{fill:#FF1733;}
	.st2{fill:#FFFF00;}
</style>
<g>
	
		<image style="overflow:visible;" width="1073" height="266" xlink:href="BB358A5C6D0CE391.png"  transform="matrix(1 0 0 1 -29 -28.1)">
	</image>
</g>
<g>
	<path d="M909.8,138l10.6-40h84.5c-3.5,7-9.4,14.2-17.6,21.6c4.3,5.2,6.4,12.1,6.4,20.5c0,14.2-5,27.3-15,39.1S956.8,198.3,943,201
		h-40.8c-20.7,0-33.1-9.6-37.1-28.8c-0.9-3.7-0.4-10.3,1.3-19.8h49.4c-0.6,1.7-0.9,3.1-0.9,4.5c0,4.8,3.1,7.2,9.3,7.2
		c3.2,0,6.5-0.5,9.9-1.6c4-1.2,7.4-3.1,10.4-5.6c3.7-3.1,5.5-6.4,5.5-9.9c0-6-7.1-9-21.2-9L909.8,138L909.8,138z"/>
	<path class="st0" d="M881.2,89.4c3.4-9.7,9.4-18.3,18.1-25.6c9.3-7.8,18.8-11.7,28.5-11.7h54c8.8,0,16,5.2,21.4,15.5
		c2.8,5.5,4.2,12.8,4.2,21.8C1007.4,89.4,881.2,89.4,881.2,89.4z"/>
	<path d="M795.1,21.1l6.6,23.6h-11.9l-6-21.2l-7.2,7.1l-8.7-7.1l5.9,21.2h-12.9l-6.7-23.6H795.1L795.1,21.1z"/>
	<path d="M812.7,21.1l6.6,23.6h-12.5l-6.5-23.6H812.7z"/>
	<path d="M910.6,21.1l6.6,23.6h-12.5l-6.5-23.6H910.6z"/>
	<path d="M926,21.1l3.7,12.6c0.4,1.5,1.1,2.4,2.1,2.6h7.5c0.6-0.2,0.9-0.6,0.9-1.3c0-0.3-0.1-0.8-0.2-1.3l-3.6-12.5h12l2.6,9.5
		c0.5,1.9,0.8,3.6,0.8,5.3c0,3.1-1.2,5.4-3.6,6.9c-1.9,1.2-4.5,1.9-7.8,1.9h-6.1c-5.4,0-9.8-1.8-13-5.5c-1.8-2-3.1-4.5-4-7.5
		c-1.3-4.7-2.3-8-2.8-9.8l-0.2-0.8L926,21.1L926,21.1z"/>
	<path d="M986.7,21.1l6.5,23.6h-11.8l-4.2-14.3L966,23.6l5.8,21.1h-13l-6.3-23.6C952.5,21.1,986.7,21.1,986.7,21.1z"/>
	<path d="M844.1,35c0.8-0.1,1.2-0.3,1.6-0.9c0.3-0.5,0.2-1.2,0.1-1.8c-0.4-1.9-2.1-2.4-3.6-2.5h-8.9c-5.8,0-8.8-1.2-8.8-1.2
		c-0.7-0.2-2-0.7-3-1.6c-1.8-1.5-3.3-3.6-3.6-5.9h20.9c2,0,4,0.2,5.9,0.4c2.5,0.3,5.1,0.8,7.1,2.5s3.3,3.9,4.1,6.3
		c0.9,2.8,2.4,6,1.4,9c-1.1,3.2-4.5,5.3-7.9,5.3h-24.2l-2.7-9.7C822.5,35,843.6,35,844.1,35L844.1,35z"/>
	<path d="M883.9,35c0.8-0.1,1.2-0.3,1.6-0.9c0.3-0.5,0.2-1.2,0.1-1.8c-0.4-1.9-2.1-2.4-3.6-2.5h-8.9c-5.8,0-8.8-1.2-8.8-1.2
		c-0.7-0.2-2-0.7-3-1.6c-1.8-1.5-3.3-3.6-3.6-5.9h20.9c2,0,4,0.2,5.9,0.4c2.5,0.3,5.1,0.8,7.1,2.5s3.3,3.9,4.1,6.3
		c0.9,2.8,2.4,6,1.4,9c-1.1,3.2-4.5,5.3-7.9,5.3H865l-2.7-9.7C862.2,35,883.3,35,883.9,35L883.9,35z"/>
	<path class="st1" d="M791.8,52.5l-2.5,8.7h-30.9c0.7-2.2,1.9-4.1,3.6-5.8c2-1.9,4-2.8,6.1-2.8h23.7L791.8,52.5z"/>
	<path class="st1" d="M832.1,61.1h-36.9l2.3-8.6h29.4c0.8,0,1.6,0.3,2.4,0.8c0.8,0.6,1.4,1.2,1.8,2
		C831.8,56.5,832.1,58.4,832.1,61.1z"/>
	<path class="st1" d="M853,52.5l-2.4,8.7h-12.4l2.5-8.7H853z"/>
	<path class="st1" d="M890,52.5l-2.4,8.6h-31.3l2.3-8.6H890z"/>
	<path class="st2" d="M763.8,9.1l8.8,6.8l7.1-6.8h12.1l2.4,8.7h-40.8l-2.5-8.7L763.8,9.1z"/>
	<path class="st2" d="M809.4,9.1l2.5,8.7h-12.4l-2.4-8.7L809.4,9.1z"/>
	<path class="st2" d="M907.3,9.1l2.5,8.7h-12.4L895,9.1H907.3z"/>
	<path class="st2" d="M913.5,15.9c0-4.7,2.2-7.1,6.7-7.1h17.6c2.2,0,4.3,1,6.3,2.9c1.7,1.6,2.8,3.6,3.5,5.9h-34
		C913.5,17.7,913.5,17.1,913.5,15.9z"/>
	<path class="st2" d="M962.1,9.1l11.5,7.3l-2-7.3h11.7l2.4,8.6h-33.8l-2.6-8.6H962.1z"/>
	<path class="st2" d="M853,17.6l-2.5-8.7h-27.2c-2,0-3.6,1.2-4.9,3.6c-0.7,1.2-1,3-1,5.1H853z"/>
	<path class="st2" d="M892.8,17.6l-2.5-8.7h-27.2c-2,0-3.6,1.2-4.9,3.6c-0.7,1.2-1,3-1,5.1H892.8L892.8,17.6z"/>
	<path d="M784.5,78.6l-2.7,9.6h-16.4c-5.7,0-9.3-1.8-10.8-5.4c-0.5-1.1-0.6-2.6-0.5-4.6c0-0.4,0.1-1.1,0.2-2.1l3-11.5l12.8-0.1
		l-3.7,11.4c0.1,0.4,0.2,0.9,0.3,1.4c0.3,0.6,0.9,1,1.9,1.2L784.5,78.6L784.5,78.6z"/>
	<path d="M831.4,64.6c-0.3,2.1-1.5,4.1-3.6,5.9c-1,0.9-1.8,1.4-2.4,1.6c0.8,1.2,1.2,2.6,1.2,3.9c0,0.8-0.1,1.9-0.4,3.4
		c-0.1,0.9-1,3.8-2.7,8.7H812l4.1-14.2h-12.2l-4.4,14.2h-12l6.9-23.6L831.4,64.6L831.4,64.6z"/>
	<path d="M849.9,64.6l-6.5,23.6h-12.5l6.5-23.6H849.9z"/>
	<path d="M876.7,64.6l-6.3,23.6h-11.8l6.4-23.6H876.7z"/>
	<path class="st0" d="M673.9,46.9L663.5,9.7h-9.1l10.2,37.2H673.9z"/>
	<path class="st0" d="M654.4,90.6h9.1l10.4-37.2h-9.3L654.4,90.6z"/>
	<path d="M658.4,46.9L648,9.7h-24.2L634,46.9H658.4z"/>
	<path class="st0" d="M627.7,46.9L617.4,9.7h-9.1l10.2,37.2H627.7z"/>
	<path class="st0" d="M608.3,90.6h9.1l10.3-37.2h-9.2L608.3,90.6z"/>
	<path d="M612.2,46.9L601.9,9.7h-24.3l10.2,37.2H612.2z"/>
	<path class="st0" d="M581.6,46.9L571.2,9.7h-9.1l10.2,37.2H581.6z"/>
	<path class="st0" d="M562.1,90.6h9.1l10.4-37.2h-9.3L562.1,90.6z"/>
	<path d="M750.7,46.9L740.4,9.7h-24.3l10.2,37.2H750.7z"/>
	<path d="M716.1,90.6h24.3l10.3-37.2h-24.4L716.1,90.6z"/>
	<path class="st0" d="M720,46.9L709.7,9.7h-9.1l10.2,37.2H720z"/>
	<path class="st0" d="M700.6,90.6h9.1L720,53.4h-9.2L700.6,90.6z"/>
	<path d="M704.5,46.9L694.2,9.7h-24.3l10.2,37.2H704.5z"/>
	<path d="M669.9,90.6h24.3l10.3-37.2h-24.4L669.9,90.6z"/>
	<path d="M577.6,90.6h24.3l10.3-37.2h-24.4L577.6,90.6z"/>
	<path class="st0" d="M489.1,46.9L478.8,9.7h-9.1l10.2,37.2H489.1z"/>
	<path class="st0" d="M469.7,90.6h9.1l10.3-37.2h-9.2L469.7,90.6z"/>
	<path d="M473.6,46.9L463.3,9.7H439l10.2,37.2H473.6z"/>
	<path class="st0" d="M443,46.9L432.6,9.7h-9.1l10.2,37.2H443z"/>
	<path class="st0" d="M423.5,90.6h9.1L443,53.4h-9.3L423.5,90.6z"/>
	<path d="M427.5,46.9L417.1,9.7h-24.2l10.2,37.2H427.5z"/>
	<path class="st0" d="M396.8,46.9L386.5,9.7h-9.1l10.2,37.2H396.8z"/>
	<path class="st0" d="M377.4,90.6h9.1l10.3-37.2h-9.2L377.4,90.6z"/>
	<path d="M565.9,46.9L555.6,9.7h-24.3l10.2,37.2H565.9z"/>
	<path d="M531.3,90.6h24.3l10.3-37.2h-24.4L531.3,90.6z"/>
	<path class="st0" d="M535.3,46.9L524.9,9.7h-9.1L526,46.9H535.3z"/>
	<path class="st0" d="M515.8,90.6h9.1l10.4-37.2H526L515.8,90.6z"/>
	<path d="M519.8,46.9L509.4,9.7h-24.2l10.2,37.2H519.8z"/>
	<path d="M485.2,90.6h24.2l10.4-37.2h-24.4L485.2,90.6z"/>
	<path d="M392.9,90.6h24.2l10.4-37.2h-24.4L392.9,90.6z"/>
	<path class="st0" d="M303.4,46.9L293.1,9.7H284l10.2,37.2H303.4z"/>
	<path class="st0" d="M284,90.6h9.1l10.3-37.2h-9.2L284,90.6z"/>
	<path d="M288,46.9L277.6,9.7h-24.2l10.1,37.2H288z"/>
	<path class="st0" d="M257.3,46.9L247,9.7h-9.1L248,46.9H257.3z"/>
	<path class="st0" d="M237.9,90.6h9.1l10.3-37.2H248L237.9,90.6z"/>
	<path d="M241.8,46.9L231.5,9.7h-24.3l10.2,37.2H241.8z"/>
	<path class="st0" d="M211.1,46.9L200.8,9.7h-9.1l10.2,37.2H211.1z"/>
	<path class="st0" d="M191.7,90.6h9.1l10.3-37.2h-9.2L191.7,90.6z"/>
	<path d="M380.3,46.9L369.9,9.7h-24.2l10.1,37.2H380.3z"/>
	<path d="M345.7,90.6h24.2l10.4-37.2h-24.5L345.7,90.6z"/>
	<path class="st0" d="M349.6,46.9L339.3,9.7h-9.1l10.1,37.2H349.6z"/>
	<path class="st0" d="M330.2,90.6h9.1l10.3-37.2h-9.3L330.2,90.6z"/>
	<path d="M334.1,46.9L323.8,9.7h-24.3l10.2,37.2H334.1z"/>
	<path d="M299.5,90.6h24.3l10.3-37.2h-24.4L299.5,90.6z"/>
	<path d="M207.2,90.6h24.3l10.3-37.2h-24.4L207.2,90.6z"/>
	<path d="M439,90.6h24.3l10.3-37.2h-24.4L439,90.6z"/>
	<path d="M623.8,90.6H648l10.4-37.2H634L623.8,90.6z"/>
	<path d="M253.4,90.6h24.2L288,53.4h-24.5L253.4,90.6z"/>
	<path class="st0" d="M119.1,46.9L108.8,9.7h-9.1l10.2,37.2H119.1z"/>
	<path class="st0" d="M99.7,90.6h9.1l10.3-37.2h-9.2L99.7,90.6z"/>
	<path d="M103.6,46.9L93.3,9.7H69l10.2,37.2H103.6z"/>
	<path class="st0" d="M73,46.9L62.6,9.7h-9.1l10.2,37.2H73z"/>
	<path class="st0" d="M53.5,90.6h9.1L73,53.4h-9.3L53.5,90.6z"/>
	<path d="M57.5,46.9L47.1,9.7H22.9L33,46.9H57.5z"/>
	<path class="st0" d="M26.8,46.9L16.5,9.7H7.4l10.2,37.2H26.8z"/>
	<path class="st0" d="M7.4,90.6h9.1l10.3-37.2h-9.2L7.4,90.6z"/>
	<path d="M195.9,46.9L185.6,9.7h-24.3l10.2,37.2H195.9z"/>
	<path d="M161.3,90.6h24.3l10.3-37.2h-24.4L161.3,90.6z"/>
	<path class="st0" d="M165.3,46.9L154.9,9.7h-9.1L156,46.9H165.3z"/>
	<path class="st0" d="M145.8,90.6h9.1l10.4-37.2H156L145.8,90.6z"/>
	<path d="M149.8,46.9L139.4,9.7h-24.2l10.1,37.2H149.8z"/>
	<path d="M115.2,90.6h24.2l10.4-37.2h-24.5L115.2,90.6z"/>
	<path d="M22.9,90.6h24.2l10.4-37.2H33L22.9,90.6z"/>
	<path d="M69,90.6h24.3l10.3-37.2H79.2L69,90.6z"/>
</g>
</svg>
