<svg id="Layer_1" xmlns="http://www.w3.org/2000/svg" viewBox="0 0 66.1 67.3"><style>.st0{stroke:#fff;stroke-width:.25;stroke-miterlimit:10}.st1{fill:#ff1733}.st2{fill:#ff0}</style><path class="st0" d="M28.1 38.7l-4.5 7.2 6-5.4zM38.5 37l5 7-6.3-5zm-7 7l.8 8.4.9-8.4z"/><path class="st1" d="M27.8 24.7c-1.7.1-3.1 1.1-4.4 2.3-1.7 1.5-3.3 3.7-3 6 .2 1.7 1.4 3.2 2.7 4.3 1.3 1.1 2.8 2.1 3.9 3.4 1.7 2 2.5 4.7 2.6 7.4 4.9-3.2 9.5-7.1 12.7-12 .5-.8 1-1.6 1.3-2.5.8-2.1.8-4.5-.2-6.5s-2.9-3.5-5.1-3.8c-2.2-.3-4.6.8-5.7 2.7-1.5-.7-3.1-1.4-4.8-1.3z"/><path class="st0" d="M32.9 16.8s2.2.1 3.2 2.1c0 0 .2.5-1.3.5l-1.1 12.8 8.5-9.2s-1-1.2-.5-1.6c.7-.6 2.1-.1 2.7.4.3.2.5.6.7.9.3.6.1.9 0 1.5 0 0-.1.4-1.4 0l-9.9 10.3c-1.4.7-2.1 0-2.1 0l-9.9-10.3c-1.3.4-1.4 0-1.4 0-.6-1.3.6-2.6 1.7-2.9.5-.1 1.3-.3 1.7.1.5.5-.5 1.6-.5 1.6l8.5 9.2-1.1-12.8c-1.7.1-1.3-.5-1.3-.5 1-2 3.2-2.1 3.2-2.1h.3z"/><path class="st2" d="M62.3 33.3c-.1-.2-.3-.2-.5-.3-.6-.2-1.2-.4-1.7-.7-1.2-.8-1.2-2.4-.2-3.3.4-.3.8-.5 1.2-.8.1 0 .1-.1.2-.1.3-.2.4-.5.3-.7-.1-.3-.3-.4-.6-.5-.6-.1-1.1-.1-1.7-.2-1.6-.4-2.1-2.4-1-3.6.3-.3.6-.6 1-.9.3-.3.3-.5.2-.8-.1-.3-.4-.4-.7-.3-.5 0-.9.1-1.4.1-.9.1-1.5-.3-2-1s-.5-1.5 0-2.3c.2-.4.5-.7.7-1.1.2-.3.3-.6.1-.8-.2-.3-.4-.3-.8-.2-.5.2-.9.3-1.4.4-1.6.3-3-1.2-2.5-2.8.1-.4.3-.8.5-1.2.1-.3.1-.6-.1-.8-.3-.2-.5-.2-.8 0-.6.3-1.1.7-1.8.8-1.3.4-2.6-.7-2.6-2.1 0-.5.1-1 .2-1.5s0-.7-.3-.9c-.3-.1-.5-.1-.8.3-.4.3-.8.7-1.2 1-1.4.9-3.2 0-3.3-1.7 0-.4 0-.9-.1-1.3 0-.4-.2-.6-.5-.7-.3-.1-.5.1-.7.3-.1.2-.2.3-.3.5-.3.3-.5.6-.8.9-1.2 1-3 .6-3.5-.9-.1-.4-.3-.9-.4-1.3-.1-.3-.2-.5-.5-.6-.3 0-.6.1-.7.5-.2.4-.4.9-.6 1.3-.4.8-1 1.1-1.9 1.1-.9 0-1.5-.4-1.9-1.2-.2-.4-.4-.7-.6-1.1-.2-.3-.3-.5-.7-.4-.3 0-.5.2-.6.6-.1.7-.2 1.4-.6 1.9-.8 1.2-2.5 1.3-3.4.2-.3-.3-.5-.7-.8-1-.2-.3-.5-.4-.7-.3-.3.1-.5.3-.5.7v1.3c0 .9-.5 1.6-1.3 2-.8.3-1.6.2-2.3-.4-.3-.2-.5-.5-.8-.7-.2-.2-.5-.3-.8-.1-.3.2-.3.4-.3.8l.3 1.5c.2 1.6-1.4 2.8-2.9 2.2-.4-.2-.8-.4-1.3-.6-.3-.2-.6-.1-.8.1-.2.2-.2.5-.1.8.2.5.5.9.6 1.5.4 1.6-1 2.9-2.6 2.6-.4-.1-.8-.2-1.3-.4-.3-.1-.6 0-.8.3-.2.3-.1.5.1.8.3.4.6.7.8 1.1.4.7.5 1.5.1 2.2-.4.7-1.1 1.1-2 1.1-.4 0-.9 0-1.3-.1-.4 0-.6.1-.7.4-.1.3 0 .5.3.8.4.3.8.6 1.1 1 1.1 1.2.5 3.1-1.1 3.5-.1-.2-.5-.2-1-.1-.4.1-.6.2-.7.5-.1.3.1.5.5.7.4.2.9.5 1.3.8 1.2 1 .9 3-.6 3.6-.4.2-.8.3-1.2.5-.3.1-.5.3-.5.6s.2.5.5.6c.4.1.8.3 1.2.4.9.3 1.3.9 1.4 1.8.1.9-.3 1.5-1 2-.3.2-.7.4-1.1.7-.3.2-.4.4-.3.7.1.3.3.4.6.4.4 0 .8.1 1.3.1.9.1 1.5.6 1.8 1.4.3.8.1 1.6-.5 2.2l-.9.9c-.2.4-.2.7-.1 1 .2.3.4.3.8.3.6-.1 1.1-.2 1.7-.1 1.5.1 2.3 1.8 1.6 3.1-.2.4-.5.8-.8 1.2-.2.3-.3.6-.1.9.2.3.5.2.9.1.6-.3 1.2-.5 1.8-.5 1.4 0 2.4 1.4 1.9 2.7-.1.4-.3.9-.5 1.3s-.1.7.1.9c.3.2.5.2.8 0 .5-.3.9-.6 1.4-.8 1.4-.6 3 .6 2.8 2.2 0 .5-.1.9-.2 1.4-.1.4 0 .6.3.8.3.1.5.1.8-.2.4-.3.7-.7 1.1-1 .7-.5 1.4-.5 2.2-.2.7.4 1.1 1 1.2 1.8v1.2c0 .4.1.6.5.7.3.1.5 0 .8-.3.3-.4.5-.7.8-1.1.6-.7 1.3-1 2.1-.8.8.2 1.4.7 1.6 1.6l.3 1.2c.1.4.2.6.6.6.3 0 .5-.1.7-.5.2-.4.4-.9.6-1.3.4-.7 1-1.1 1.8-1.1.9 0 1.5.4 1.9 1.2.2.4.4.7.5 1.1.2.4.4.6.7.5.4-.1.5-.3.6-.7.1-.6.2-1.1.4-1.6.7-1.4 2.5-1.5 3.5-.4.3.3.5.7.8 1 .2.3.5.4.8.3.3-.1.4-.4.4-.8v-1.4c.2-1.6 1.9-2.5 3.3-1.5.4.3.7.6 1.1.9.3.3.6.3.9.2.3-.2.4-.4.3-.8l-.3-1.2c-.1-.8.1-1.5.8-2.1.7-.5 1.4-.6 2.2-.3.4.2.8.4 1.2.7.3.2.6.2.9 0 .3-.3.3-.5.1-.9-.2-.4-.4-.9-.6-1.3-.4-1.3.5-2.7 1.8-2.7.6 0 1.2.2 1.8.3.2 0 .3.1.5.1.3 0 .5-.1.6-.4.1-.2.1-.5-.1-.7-.3-.4-.5-.7-.8-1.1-.5-.7-.6-1.5-.2-2.3.4-.8 1.1-1.1 2-1.1.4 0 .8.1 1.2.1.3 0 .6-.1.7-.3.1-.3.1-.6-.2-.8-.4-.3-.7-.6-1.1-1-.6-.6-.8-1.3-.5-2.1.3-.8.8-1.3 1.7-1.5.4-.1.8-.1 1.3-.2.2 0 .4-.1.5-.2.4-.3.3-.8-.2-1.1-.4-.2-.8-.5-1.2-.7-.7-.5-1-1.2-1-2 .1-.9.6-1.5 1.4-1.8.4-.2.8-.3 1.2-.4.8-.1.9-.5.7-.8zM44.2 14.7c.6-.8 1.7-1 2.5-.4s1 1.7.4 2.5-1.7 1-2.5.4c-.8-.5-1-1.7-.4-2.5zm-26.3-.3c.8-.6 2-.4 2.5.4s.4 2-.4 2.5c-.8.6-2 .4-2.5-.4-.6-.8-.4-1.9.4-2.5zM11.3 43c-1 .3-2-.2-2.3-1.2-.3-1 .2-2 1.2-2.3 1-.3 2 .2 2.3 1.2.3.9-.2 1.9-1.2 2.3zm21 15.7c-1 0-1.8-.8-1.8-1.8s.8-1.8 1.8-1.8 1.8.8 1.8 1.8c.1 1-.8 1.8-1.8 1.8zm17.6-15.6c-4.9 9.7-16.8 13.6-26.5 8.7S9.8 35 14.7 25.3s16.8-13.6 26.5-8.7 13.6 16.8 8.7 26.5zm5.7-1.4c-.3 1-1.3 1.5-2.3 1.2-1-.3-1.5-1.3-1.2-2.3.3-1 1.3-1.5 2.3-1.2 1 .4 1.5 1.4 1.2 2.3z"/></svg>